<svg xmlns="http://www.w3.org/2000/svg" viewBox="0 0 1000 700" preserveAspectRatio="xMidYMid meet" role="img" aria-label="Azərbaycan xəritəsi">
  <defs>
    <linearGradient id="azLand" x1="0" y1="0" x2="0" y2="1">
      <stop offset="0" stop-color="#1E6FE0" stop-opacity="0.08"/>
      <stop offset="1" stop-color="#4EA3FF" stop-opacity="0.18"/>
    </linearGradient>
    <filter id="azShadow" x="-5%" y="-5%" width="110%" height="110%">
      <feGaussianBlur stdDeviation="3" in="SourceAlpha"/>
      <feOffset dx="0" dy="3"/>
      <feComponentTransfer><feFuncA type="linear" slope="0.18"/></feComponentTransfer>
      <feMerge><feMergeNode/><feMergeNode in="SourceGraphic"/></feMerge>
    </filter>
  </defs>

  <g fill="url(#azLand)" stroke="#1E6FE0" stroke-width="2.4" stroke-linejoin="round" stroke-linecap="round" filter="url(#azShadow)">
    <path d="M66 151
             L90 114 L123 85 L156 47 L213 19
             L258 26 L295 38 L342 55 L393 76 L445 94
             L492 110 L528 121 L557 132 L600 138 L639 142
             L670 160 L697 189 L712 212 L721 227 L745 252
             L771 274 L808 286 L836 293 L872 300 L902 306
             L928 302 L948 299 L965 302 L975 307
             L968 315 L959 318 L938 326 L910 337 L878 349
             L844 359 L818 372 L803 388 L792 418 L787 445
             L776 475 L764 496 L754 511 L745 540 L738 577
             L730 605 L721 634 L713 655 L705 672
             L678 674 L648 672 L624 646 L598 615
             L578 596 L557 577 L524 558 L492 539
             L458 525 L418 511 L378 505 L344 501
             L326 503 L312 511 L302 493 L295 473
             L284 448 L270 426 L262 402 L254 378
             L242 354 L229 331 L210 310 L188 284
             L165 256 L139 227 L118 203 L98 180
             Z"/>

    <path d="M57 407
             L88 412 L115 422 L142 450 L164 482
             L194 504 L230 520 L242 546 L246 568
             L238 580 L230 587 L195 591 L156 590
             L122 592 L98 590 L72 580 L50 568
             L33 558 L30 522 L33 492
             L40 455 L48 428
             Z"/>
  </g>

  <g fill="none" stroke="#1E6FE0" stroke-width="0.9" stroke-linecap="round" opacity="0.35">
    <path d="M213 19 l-6 12 M295 38 l-4 14 M393 76 l-3 15 M492 110 l-2 14 M639 142 l-2 16"/>
    <path d="M975 307 l14 -3 M959 318 l16 4 M910 337 l15 6 M844 359 l12 8"/>
  </g>

  <g fill="#4EA3FF" opacity="0.05">
    <path d="M975 307 L1000 302 L1000 700 L720 700 L728 682 L738 640 L752 580 L770 500 L790 420 L810 370 L850 340 L920 320 L975 307 Z"/>
  </g>
</svg>
