<svg width="129" height="21" viewBox="0 0 129 21" fill="none" xmlns="http://www.w3.org/2000/svg">
<path d="M14.55 16.2C14.55 17.7333 14.6083 19 14.725 20C13.5917 19.95 11.6833 19.925 9 19.925C5.36667 19.925 2.65 19.95 0.85 20V19.5C1.4 19.4667 1.8 19.4 2.05 19.3C2.31667 19.2 2.49167 19.0083 2.575 18.725C2.675 18.4417 2.725 17.9833 2.725 17.35V4.95C2.725 4.31667 2.675 3.85833 2.575 3.575C2.49167 3.29167 2.31667 3.1 2.05 3C1.8 2.9 1.4 2.83333 0.85 2.8V2.3C2.65 2.35 5.36667 2.375 9 2.375C11.45 2.375 13.1917 2.35 14.225 2.3C14.1083 3.68333 14.05 4.91667 14.05 6C14.05 6.73333 14.075 7.3 14.125 7.7H13.55C13.3 5.91667 12.85 4.66667 12.2 3.95C11.55 3.23333 10.6333 2.875 9.45 2.875H8.425C7.90833 2.875 7.53333 2.91667 7.3 3C7.06667 3.08333 6.90833 3.25 6.825 3.5C6.74167 3.73333 6.7 4.11667 6.7 4.65V10.85H7.5C8.38333 10.85 9.05 10.525 9.5 9.875C9.96667 9.225 10.2917 8.45 10.475 7.55H11.05C11 8.25 10.975 9.03333 10.975 9.9V11.1C10.975 11.95 11.025 13.1333 11.125 14.65H10.55C10.2 12.45 9.18333 11.35 7.5 11.35H6.7V17.65C6.7 18.1833 6.74167 18.575 6.825 18.825C6.90833 19.0583 7.06667 19.2167 7.3 19.3C7.53333 19.3833 7.90833 19.425 8.425 19.425H9.65C10.8333 19.425 11.7833 19.025 12.5 18.225C13.2333 17.4083 13.75 16.0333 14.05 14.1H14.625C14.575 14.65 14.55 15.35 14.55 16.2ZM21.5447 17.675C21.5447 18.3583 21.6614 18.8333 21.8947 19.1C22.1281 19.35 22.5447 19.475 23.1447 19.475V20C21.4114 19.9333 20.2947 19.9 19.7947 19.9C19.2281 19.9 18.0781 19.9333 16.3447 20V19.475C16.9281 19.475 17.3364 19.35 17.5697 19.1C17.8197 18.8333 17.9447 18.3583 17.9447 17.675V3.425C17.9447 2.65833 17.8197 2.1 17.5697 1.75C17.3364 1.4 16.9281 1.225 16.3447 1.225V0.7C16.8781 0.749999 17.3947 0.774999 17.8947 0.774999C19.3447 0.774999 20.5614 0.658332 21.5447 0.424999V17.675ZM30.8084 0.449998C31.8417 0.449998 32.7334 0.724999 33.4834 1.275C33.7334 1.475 33.9334 1.74167 34.0834 2.075C34.2501 2.39167 34.3334 2.75 34.3334 3.15C34.3334 3.61667 34.1667 4.025 33.8334 4.375C33.5001 4.70833 33.0751 4.875 32.5584 4.875C31.9917 4.875 31.5334 4.71667 31.1834 4.4C30.8334 4.08333 30.6584 3.65 30.6584 3.1C30.6584 2.66667 30.7834 2.28333 31.0334 1.95C31.2834 1.61667 31.6501 1.38333 32.1334 1.25C32.0834 1.15 31.9751 1.06667 31.8084 0.999999C31.6584 0.933332 31.4667 0.899999 31.2334 0.899999C30.6001 0.899999 30.1501 1.11667 29.8834 1.55C29.7001 1.8 29.5751 2.16667 29.5084 2.65C29.4417 3.13333 29.4084 3.85833 29.4084 4.825V7.1H32.0834V7.6H29.4084V17.425C29.4084 18.1917 29.6001 18.725 29.9834 19.025C30.3834 19.325 30.9751 19.475 31.7584 19.475V20L31.0584 19.975C29.2084 19.925 28.0084 19.9 27.4584 19.9C26.9584 19.9 25.8751 19.9333 24.2084 20V19.475C24.8084 19.475 25.2251 19.35 25.4584 19.1C25.6917 18.8333 25.8084 18.3583 25.8084 17.675V7.6H24.1084V7.1H25.8084C25.8084 5.65 25.9251 4.53333 26.1584 3.75C26.3917 2.95 26.8001 2.26667 27.3834 1.7C27.7501 1.33333 28.2417 1.03333 28.8584 0.8C29.4751 0.566666 30.1251 0.449998 30.8084 0.449998ZM36.2975 20.175C35.2308 20.175 34.4308 19.9 33.8975 19.35C33.3808 18.8 33.1225 18.075 33.1225 17.175C33.1225 16.425 33.3141 15.8083 33.6975 15.325C34.0975 14.825 34.5725 14.4417 35.1225 14.175C35.6891 13.9083 36.4058 13.625 37.2725 13.325C38.1891 13.0083 38.8558 12.725 39.2725 12.475C39.7058 12.2083 39.9225 11.85 39.9225 11.4V9.45C39.9225 8.75 39.7558 8.20833 39.4225 7.825C39.1058 7.425 38.6058 7.225 37.9225 7.225C37.1225 7.225 36.5141 7.425 36.0975 7.825C36.5641 7.99167 36.9225 8.24167 37.1725 8.575C37.4391 8.90833 37.5725 9.3 37.5725 9.75C37.5725 10.3167 37.3808 10.7667 36.9975 11.1C36.6141 11.4333 36.1475 11.6 35.5975 11.6C35.0141 11.6 34.5641 11.4167 34.2475 11.05C33.9308 10.6833 33.7725 10.225 33.7725 9.675C33.7725 9.20833 33.8808 8.81667 34.0975 8.5C34.3308 8.16667 34.6808 7.85833 35.1475 7.575C35.5975 7.30833 36.1475 7.1 36.7975 6.95C37.4641 6.8 38.1891 6.725 38.9725 6.725C39.7891 6.725 40.4975 6.80833 41.0975 6.975C41.6975 7.14167 42.1975 7.425 42.5975 7.825C42.9641 8.19167 43.2058 8.64167 43.3225 9.175C43.4558 9.70833 43.5225 10.4333 43.5225 11.35V18.15C43.5225 18.55 43.5558 18.8333 43.6225 19C43.7058 19.1667 43.8558 19.25 44.0725 19.25C44.3225 19.25 44.6225 19.1083 44.9725 18.825L45.2225 19.25C44.4725 19.8667 43.5558 20.175 42.4725 20.175C41.5558 20.175 40.9141 19.9917 40.5475 19.625C40.1808 19.2583 39.9891 18.7667 39.9725 18.15C39.1391 19.5 37.9141 20.175 36.2975 20.175ZM38.2225 18.575C38.8725 18.575 39.4391 18.2333 39.9225 17.55V12.425C39.7225 12.7583 39.2975 13.125 38.6475 13.525C37.9975 13.9417 37.5058 14.3583 37.1725 14.775C36.8391 15.1917 36.6725 15.7917 36.6725 16.575C36.6725 17.2583 36.8141 17.7667 37.0975 18.1C37.3808 18.4167 37.7558 18.575 38.2225 18.575ZM57.7498 12.85V17.2C57.7498 17.8667 57.8165 18.3583 57.9498 18.675C58.0998 18.975 58.3498 19.175 58.6998 19.275C59.0665 19.375 59.6415 19.4333 60.4248 19.45V20C58.3748 19.95 56.8498 19.925 55.8498 19.925C55.0165 19.925 53.9665 19.9417 52.6998 19.975L51.8998 20V19.5C52.4498 19.4667 52.8498 19.4 53.0998 19.3C53.3665 19.2 53.5415 19.0083 53.6248 18.725C53.7248 18.4417 53.7748 17.9833 53.7748 17.35V4.95C53.7748 4.31667 53.7248 3.85833 53.6248 3.575C53.5415 3.29167 53.3665 3.1 53.0998 3C52.8498 2.9 52.4498 2.83333 51.8998 2.8V2.3C52.7498 2.35 54.0165 2.375 55.6998 2.375L58.4748 2.35C58.8081 2.33333 59.1915 2.325 59.6248 2.325C61.8748 2.325 63.5915 2.775 64.7748 3.675C65.9581 4.55833 66.5498 5.75 66.5498 7.25C66.5498 8.16667 66.3165 9.05 65.8498 9.9C65.3831 10.7333 64.5915 11.4333 63.4748 12C62.3748 12.5667 60.9081 12.85 59.0748 12.85H57.7498ZM59.2998 2.8C58.8498 2.8 58.5165 2.85833 58.2998 2.975C58.0998 3.09167 57.9581 3.3 57.8748 3.6C57.7915 3.9 57.7498 4.35 57.7498 4.95V12.35H58.8248C60.1748 12.35 61.1081 11.9167 61.6248 11.05C62.1415 10.1833 62.3998 9.00833 62.3998 7.525C62.3998 5.90833 62.1581 4.71667 61.6748 3.95C61.2081 3.18333 60.4165 2.8 59.2998 2.8ZM72.4963 9.05C73.2463 7.5 74.6046 6.725 76.5713 6.725C77.8713 6.725 78.788 7.05 79.3213 7.7C79.6046 8.01667 79.8046 8.43333 79.9213 8.95C80.0546 9.45 80.1213 10.1167 80.1213 10.95V17.675C80.1213 18.3583 80.238 18.8333 80.4713 19.1C80.7046 19.35 81.1213 19.475 81.7213 19.475V20C79.988 19.9333 78.888 19.9 78.4213 19.9C77.8546 19.9 76.7713 19.9333 75.1713 20V19.475C75.6713 19.475 76.0213 19.35 76.2213 19.1C76.4213 18.8333 76.5213 18.3583 76.5213 17.675V9.9C76.5213 9.21667 76.4046 8.7 76.1713 8.35C75.9546 8 75.5546 7.825 74.9713 7.825C74.2713 7.825 73.6796 8.1 73.1963 8.65C72.7296 9.18333 72.4963 9.86667 72.4963 10.7V17.675C72.4963 18.3583 72.5963 18.8333 72.7963 19.1C72.9963 19.35 73.3463 19.475 73.8463 19.475V20C72.2463 19.9333 71.213 19.9 70.7463 19.9C70.1796 19.9 69.0296 19.9333 67.2963 20V19.475C67.8796 19.475 68.288 19.35 68.5213 19.1C68.7713 18.8333 68.8963 18.3583 68.8963 17.675V3.45C68.8963 2.68333 68.7713 2.125 68.5213 1.775C68.288 1.425 67.8796 1.25 67.2963 1.25V0.724999C67.8296 0.775 68.3463 0.8 68.8463 0.8C70.2963 0.8 71.513 0.683333 72.4963 0.449998V9.05ZM85.9313 20.175C84.8646 20.175 84.0646 19.9 83.5313 19.35C83.0146 18.8 82.7563 18.075 82.7563 17.175C82.7563 16.425 82.9479 15.8083 83.3313 15.325C83.7313 14.825 84.2063 14.4417 84.7563 14.175C85.3229 13.9083 86.0396 13.625 86.9063 13.325C87.8229 13.0083 88.4896 12.725 88.9063 12.475C89.3396 12.2083 89.5563 11.85 89.5563 11.4V9.45C89.5563 8.75 89.3896 8.20833 89.0563 7.825C88.7396 7.425 88.2396 7.225 87.5563 7.225C86.7563 7.225 86.1479 7.425 85.7313 7.825C86.1979 7.99167 86.5563 8.24167 86.8063 8.575C87.0729 8.90833 87.2063 9.3 87.2063 9.75C87.2063 10.3167 87.0146 10.7667 86.6313 11.1C86.2479 11.4333 85.7813 11.6 85.2313 11.6C84.6479 11.6 84.1979 11.4167 83.8813 11.05C83.5646 10.6833 83.4063 10.225 83.4063 9.675C83.4063 9.20833 83.5146 8.81667 83.7313 8.5C83.9646 8.16667 84.3146 7.85833 84.7813 7.575C85.2313 7.30833 85.7813 7.1 86.4313 6.95C87.0979 6.8 87.8229 6.725 88.6063 6.725C89.4229 6.725 90.1313 6.80833 90.7313 6.975C91.3313 7.14167 91.8313 7.425 92.2313 7.825C92.5979 8.19167 92.8396 8.64167 92.9563 9.175C93.0896 9.70833 93.1563 10.4333 93.1563 11.35V18.15C93.1563 18.55 93.1896 18.8333 93.2563 19C93.3396 19.1667 93.4896 19.25 93.7063 19.25C93.9563 19.25 94.2563 19.1083 94.6063 18.825L94.8563 19.25C94.1063 19.8667 93.1896 20.175 92.1063 20.175C91.1896 20.175 90.5479 19.9917 90.1813 19.625C89.8146 19.2583 89.6229 18.7667 89.6063 18.15C88.7729 19.5 87.5479 20.175 85.9313 20.175ZM87.8563 18.575C88.5063 18.575 89.0729 18.2333 89.5563 17.55V12.425C89.3563 12.7583 88.9313 13.125 88.2812 13.525C87.6313 13.9417 87.1396 14.3583 86.8063 14.775C86.4729 15.1917 86.3063 15.7917 86.3063 16.575C86.3063 17.2583 86.4479 17.7667 86.7313 18.1C87.0146 18.4167 87.3896 18.575 87.8563 18.575ZM104.171 6.725C104.921 6.725 105.487 6.95 105.871 7.4C106.254 7.85 106.446 8.39167 106.446 9.025C106.446 9.64167 106.262 10.15 105.896 10.55C105.546 10.9333 105.079 11.125 104.496 11.125C103.929 11.125 103.479 10.9833 103.146 10.7C102.812 10.4 102.646 10.0083 102.646 9.525C102.646 8.725 103.012 8.075 103.746 7.575C103.679 7.55833 103.579 7.55 103.446 7.55C103.279 7.55 103.146 7.56667 103.046 7.6C102.412 7.7 101.871 8.08333 101.421 8.75C100.987 9.41667 100.771 10.1 100.771 10.8V17.425C100.771 18.1917 100.954 18.725 101.321 19.025C101.704 19.325 102.304 19.475 103.121 19.475V20C102.887 20 102.696 19.9917 102.546 19.975C100.846 19.925 99.7124 19.9 99.1457 19.9C98.6957 19.9 97.6707 19.925 96.0707 19.975C95.9374 19.9917 95.7707 20 95.5707 20V19.475C96.1707 19.475 96.5874 19.35 96.8207 19.1C97.054 18.8333 97.1707 18.3583 97.1707 17.675V9.8C97.1707 9.03333 97.054 8.475 96.8207 8.125C96.5874 7.775 96.1707 7.6 95.5707 7.6V7.075C96.104 7.125 96.6207 7.15 97.1207 7.15C98.604 7.15 99.8207 7.03333 100.771 6.8V9.125C101.087 8.40833 101.546 7.83333 102.146 7.4C102.746 6.95 103.421 6.725 104.171 6.725ZM127.341 17.675C127.341 18.3583 127.457 18.8333 127.691 19.1C127.941 19.35 128.357 19.475 128.941 19.475V20C127.274 19.9333 126.174 19.9 125.641 19.9C125.174 19.9 124.141 19.9333 122.541 20V19.475C122.991 19.475 123.299 19.35 123.466 19.1C123.649 18.85 123.741 18.375 123.741 17.675V9.9C123.741 9.2 123.632 8.68333 123.416 8.35C123.216 8 122.824 7.825 122.241 7.825C121.624 7.825 121.082 8.08333 120.616 8.6C120.166 9.11667 119.899 9.75 119.816 10.5V10.95V17.675C119.816 18.3583 119.916 18.8333 120.116 19.1C120.332 19.35 120.716 19.475 121.266 19.475V20C119.666 19.9333 118.616 19.9 118.116 19.9C117.649 19.9 116.616 19.9333 115.016 20V19.475C115.466 19.475 115.774 19.35 115.941 19.1C116.124 18.8333 116.216 18.3583 116.216 17.675V9.9C116.216 9.2 116.124 8.68333 115.941 8.35C115.757 8 115.399 7.825 114.866 7.825C114.199 7.825 113.624 8.10833 113.141 8.675C112.674 9.225 112.441 9.90833 112.441 10.725V17.675C112.441 18.3583 112.524 18.8333 112.691 19.1C112.874 19.35 113.191 19.475 113.641 19.475V20C112.174 19.9333 111.191 19.9 110.691 19.9C110.191 19.9 109.041 19.9333 107.241 20V19.475C107.841 19.475 108.257 19.35 108.491 19.1C108.724 18.8333 108.841 18.3583 108.841 17.675V9.8C108.841 9.03333 108.724 8.475 108.491 8.125C108.257 7.775 107.841 7.6 107.241 7.6V7.075C107.774 7.125 108.291 7.15 108.791 7.15C110.274 7.15 111.491 7.03333 112.441 6.8V9.05C113.174 7.5 114.466 6.725 116.316 6.725C117.582 6.725 118.499 7.05 119.066 7.7C119.382 8.03333 119.591 8.53333 119.691 9.2C120.124 8.3 120.691 7.66667 121.391 7.3C122.091 6.91667 122.907 6.725 123.841 6.725C125.107 6.725 126.024 7.05 126.591 7.7C126.857 8 127.049 8.40833 127.166 8.925C127.282 9.44167 127.341 10.1167 127.341 10.95V17.675Z" fill="#3E3D3D"/>
</svg>
