<svg width="123" height="48" viewBox="0 0 123 48" fill="none" xmlns="http://www.w3.org/2000/svg">
<mask id="mask0_868_37421" style="mask-type:luminance" maskUnits="userSpaceOnUse" x="0" y="0" width="123" height="48">
<path d="M122.326 0H0V48H122.326V0Z" fill="white"/>
</mask>
<g mask="url(#mask0_868_37421)">
<path d="M122.283 22.2445C123.389 34.3633 100.774 41.3715 88.7311 43.5979C79.8094 45.2551 70.7532 46.0801 61.679 46.0622V46.0701C48.8654 46.0701 29.8158 44.3709 15.9749 38.6607C-0.156158 32.0129 -2.15983 23.6257 1.65338 17.7135C3.68356 14.5615 7.36065 11.7312 11.8501 9.39796C15.884 7.30689 27.6653 2.05307 48.5459 0.453432C83.0747 -2.1921 120.89 6.97235 122.286 22.2445M118.674 25.3385C125.18 6.67864 63.3839 -2.80889 32.2593 10.7118C19.4744 16.2657 15.6261 24.7052 26.32 31.9305C39.5261 40.8593 64.0724 42.383 80.422 41.0734C91.3823 40.1937 114.99 35.9042 118.676 25.3385" fill="#1c1a18"/>
<path d="M102.906 18.607C107.629 15.4134 113.564 16.7975 111.403 22.4381C109.136 28.3624 102.127 31.5761 97.5216 29.9442C96.7312 31.491 95.9405 33.0386 95.1497 34.5869C95.0887 34.7054 94.9963 34.8049 94.8826 34.8744C94.7689 34.9439 94.6382 34.9807 94.505 34.9809H91.2878C91.2258 34.9811 91.1648 34.9654 91.1106 34.9352C91.0565 34.9051 91.0109 34.8616 90.9784 34.8088C90.9458 34.7561 90.9274 34.6959 90.9247 34.6339C90.9221 34.572 90.9353 34.5105 90.9633 34.4551C93.0054 30.464 95.0449 26.4715 97.0817 22.4775C97.8713 20.9343 98.5699 19.3463 99.1742 17.7216C99.2261 17.583 99.3192 17.4636 99.441 17.3796C99.5628 17.2955 99.7075 17.2509 99.8555 17.2516H103.007C103.069 17.251 103.13 17.2664 103.185 17.2964C103.239 17.3264 103.284 17.37 103.317 17.4228C103.349 17.4756 103.367 17.536 103.369 17.5979C103.371 17.6598 103.357 17.7211 103.328 17.776C103.185 18.054 103.042 18.329 102.906 18.607ZM104.507 25.8079C107.363 23.4138 107.761 20.5132 106.262 20.1006C104.43 19.5992 102.069 21.9395 101.552 22.59C100.578 23.9346 99.769 25.3908 99.1413 26.9276C99.8677 27.6532 102.318 27.6439 104.508 25.8086" fill="#1c1a18"/>
<path d="M96.2507 17.5437C96.304 17.5564 96.3537 17.5811 96.3961 17.6157C96.4385 17.6504 96.4726 17.6942 96.4956 17.7439C96.5187 17.7936 96.5303 17.8478 96.5294 17.9026C96.5285 17.9574 96.5153 18.0113 96.4907 18.0602C95.3077 20.3769 94.1252 22.6915 92.9432 25.0039C92.1949 26.4696 91.6113 28.0137 91.2032 29.608C91.1632 29.764 91.0724 29.9023 90.9452 30.0011C90.818 30.0999 90.6615 30.1537 90.5004 30.1539H87.4853C87.427 30.1536 87.3696 30.1393 87.318 30.1123C87.2664 30.0853 87.222 30.0463 87.1885 29.9986C87.155 29.9509 87.1335 29.8959 87.1257 29.8381C87.1179 29.7804 87.124 29.7216 87.1436 29.6667C87.3145 29.1892 87.4855 28.7132 87.6565 28.239C85.0776 30.2935 83.0517 30.4332 81.7723 30.3494C80.8267 30.2907 78.8617 29.9597 78.6009 27.6917C78.3932 25.8743 79.452 23.7159 80.7586 22.1442C81.7488 20.9686 82.9255 19.9638 84.2416 19.1698C85.92 18.1548 90.0169 16.0429 96.2514 17.5437M91.2139 20.0961C90.0184 19.8849 88.7867 20.0674 87.7038 20.6162C83.8734 22.4379 81.8718 26.9918 84.2208 27.2784C86.3699 27.542 88.6508 24.9144 89.706 22.9487C89.8428 22.6929 90.9955 20.5388 91.2104 20.0954" fill="#1c1a18"/>
<path d="M81.6656 17.2974C81.7335 17.2977 81.8 17.3169 81.8576 17.353C81.9152 17.3891 81.9615 17.4406 81.9914 17.5016C82.0212 17.5627 82.0333 17.6309 82.0264 17.6985C82.0194 17.7661 81.9937 17.8304 81.9521 17.8841C77.6062 23.5062 73.2564 29.1292 68.9028 34.7531C68.8358 34.8417 68.7492 34.9137 68.6498 34.9634C68.5504 35.0131 68.4409 35.0392 68.3297 35.0396H65.1233C65.0566 35.0398 64.9911 35.0216 64.934 34.9871C64.877 34.9526 64.8305 34.9031 64.7996 34.8439C64.7688 34.7848 64.7548 34.7183 64.7592 34.6517C64.7636 34.5852 64.7862 34.5211 64.8246 34.4665C65.9808 32.8074 67.1367 31.1486 68.2925 29.49C67.8488 25.5638 67.4047 21.6362 66.96 17.7072C66.9546 17.6564 66.9597 17.6051 66.9751 17.5564C66.9905 17.5077 67.0158 17.4628 67.0495 17.4244C67.0832 17.386 67.1244 17.3551 67.1707 17.3334C67.2169 17.3118 67.2672 17.3001 67.3182 17.2989H71.0211C71.114 17.2989 71.2034 17.3345 71.2709 17.3983C71.3384 17.4621 71.379 17.5493 71.3843 17.642C71.5326 20.2632 71.6802 22.8772 71.827 25.4998L77.3251 17.6076C77.3922 17.5113 77.4815 17.4326 77.5855 17.3782C77.6896 17.3238 77.8052 17.2954 77.9226 17.2953L81.6656 17.2974Z" fill="#1c1a18"/>
<path d="M65.9822 17.2973C66.0504 17.297 66.1173 17.3159 66.1752 17.3519C66.2331 17.3879 66.2797 17.4395 66.3096 17.5007C66.3395 17.562 66.3516 17.6305 66.3443 17.6983C66.3371 17.7661 66.3109 17.8305 66.2687 17.884C63.1788 21.8799 60.0886 25.8761 56.9983 29.8724C56.9296 29.96 56.8419 30.0309 56.7419 30.0798C56.6419 30.1287 56.5322 30.1543 56.4209 30.1547H53.0102C52.921 30.1537 52.8351 30.12 52.7691 30.0599C52.703 29.9998 52.6614 29.9175 52.6521 29.8287C52.1988 25.7879 51.744 21.7467 51.2874 17.705C51.2814 17.6541 51.2861 17.6025 51.3013 17.5536C51.3165 17.5047 51.3418 17.4595 51.3755 17.421C51.4093 17.3825 51.4508 17.3515 51.4973 17.3301C51.5439 17.3087 51.5944 17.2973 51.6456 17.2966H55.3456C55.4385 17.297 55.5277 17.3326 55.5953 17.3964C55.6629 17.4601 55.7037 17.5471 55.7095 17.6398C55.8571 20.2609 56.0047 22.875 56.1529 25.4976C57.984 22.8656 59.815 20.2361 61.646 17.609C61.7132 17.5135 61.8022 17.4353 61.9056 17.381C62.009 17.3267 62.1238 17.2978 62.2406 17.2966L65.9822 17.2973Z" fill="#1c1a18"/>
<path d="M51.3311 12.6346C51.3936 12.6347 51.455 12.6509 51.5094 12.6817C51.5638 12.7125 51.6093 12.7568 51.6416 12.8103C51.6739 12.8638 51.6918 12.9248 51.6936 12.9872C51.6955 13.0497 51.6811 13.1116 51.652 13.1669C51.2065 14.0158 50.7659 14.8661 50.3189 15.7129C50.2574 15.8305 50.1648 15.929 50.051 15.9975C49.9373 16.066 49.8069 16.1019 49.6742 16.1011H46.4297C42.4117 16.1076 39.4022 16.7201 37.6185 19.4931H47.74C47.8023 19.4935 47.8636 19.5098 47.9178 19.5407C47.972 19.5716 48.0173 19.6159 48.0494 19.6694C48.0815 19.7229 48.0993 19.7837 48.1011 19.8461C48.1028 19.9084 48.0885 19.9702 48.0595 20.0254C47.6774 20.7546 47.2942 21.4856 46.9097 22.2182C46.8478 22.3354 46.755 22.4336 46.6414 22.502C46.5277 22.5704 46.3976 22.6065 46.265 22.6064H36.1155C36.1205 26.0199 39.4208 26.6546 44.2978 26.6546H49.4786C49.5411 26.6549 49.6024 26.6712 49.6568 26.7019C49.7111 26.7327 49.7567 26.7769 49.789 26.8303C49.8214 26.8838 49.8395 26.9446 49.8416 27.0071C49.8437 27.0695 49.8297 27.1314 49.8009 27.1869C49.3561 28.0315 48.9148 28.8811 48.4678 29.7271C48.4059 29.8443 48.3131 29.9423 48.1994 30.0105C48.0858 30.0787 47.9556 30.1145 47.8231 30.1139H44.2971C39.6737 30.1139 36.3691 30.0086 33.7916 28.5329C32.638 27.9202 31.723 26.9386 31.1926 25.7449C30.6623 24.5512 30.5473 23.2141 30.866 21.9474C31.4498 19.1636 33.6312 16.3905 36.9064 14.6727C40.4409 12.818 43.9984 12.6354 48.5881 12.6354L51.3311 12.6346Z" fill="#1c1a18"/>
</g>
</svg>
